<mxfile host="app.diagrams.net" modified="2020-06-05T11:22:54.197Z" agent="5.0 (Windows NT 10.0; Win64; x64) AppleWebKit/537.36 (KHTML, like Gecko) Chrome/83.0.4103.61 Safari/537.36" etag="VWJtGU2fWh5e2JAg8rLn" version="13.1.14" type="github">
  <diagram name="Page-1" id="3e8102d1-ef87-2e61-34e1-82d9a586fe2e">
    <mxGraphModel dx="1117" dy="670" grid="1" gridSize="10" guides="1" tooltips="1" connect="1" arrows="1" fold="1" page="1" pageScale="1" pageWidth="1100" pageHeight="850" background="#ffffff" math="0" shadow="0">
      <root>
        <mxCell id="0" />
        <mxCell id="1" parent="0" />
        <mxCell id="qdYtrNAOrZ_5D9fwXnJb-2" value="" style="group;fillColor=#ffe6cc;strokeColor=#d79b00;" vertex="1" connectable="0" parent="1">
          <mxGeometry x="140" y="90" width="501" height="503" as="geometry" />
        </mxCell>
        <mxCell id="70666756c84bb93c-1" value="" style="ellipse;whiteSpace=wrap;html=1;rounded=0;shadow=0;comic=0;strokeWidth=1;fontFamily=Verdana;fontSize=14;strokeColor=none;fillColor=#0069D1;" parent="qdYtrNAOrZ_5D9fwXnJb-2" vertex="1">
          <mxGeometry width="500" height="500" as="geometry" />
        </mxCell>
        <mxCell id="70666756c84bb93c-2" value="Enterprise&lt;div&gt;Business&lt;/div&gt;&lt;div&gt;Model&lt;/div&gt;" style="ellipse;whiteSpace=wrap;html=1;rounded=0;shadow=0;comic=0;strokeWidth=1;fontFamily=Verdana;fontSize=22;strokeColor=none;fillColor=#ffffff;fontColor=#0069D1;fontStyle=1" parent="qdYtrNAOrZ_5D9fwXnJb-2" vertex="1">
          <mxGeometry x="120" y="120" width="260" height="260" as="geometry" />
        </mxCell>
        <mxCell id="70666756c84bb93c-5" value="Community" style="shadow=0;dashed=0;html=1;strokeColor=none;fillColor=#ffffff;labelPosition=center;verticalLabelPosition=bottom;verticalAlign=top;shape=mxgraph.office.users.users;rounded=0;comic=0;fontFamily=Verdana;fontSize=14;fontColor=#FFFFFF;" parent="qdYtrNAOrZ_5D9fwXnJb-2" vertex="1">
          <mxGeometry x="70" y="330" width="46" height="50" as="geometry" />
        </mxCell>
        <mxCell id="70666756c84bb93c-6" value="Customer&lt;div&gt;Service&lt;/div&gt;" style="shadow=0;dashed=0;html=1;strokeColor=none;fillColor=#ffffff;labelPosition=center;verticalLabelPosition=bottom;verticalAlign=top;shape=mxgraph.office.users.call_center_agent;rounded=0;comic=0;fontFamily=Verdana;fontSize=14;fontColor=#FFFFFF;" parent="qdYtrNAOrZ_5D9fwXnJb-2" vertex="1">
          <mxGeometry x="396" y="303" width="46" height="55" as="geometry" />
        </mxCell>
        <mxCell id="70666756c84bb93c-7" value="Response&lt;div&gt;Group&lt;/div&gt;" style="shadow=0;dashed=0;html=1;strokeColor=none;fillColor=#ffffff;labelPosition=center;verticalLabelPosition=bottom;verticalAlign=top;shape=mxgraph.office.users.response_group;rounded=0;comic=0;fontFamily=Verdana;fontSize=14;fontColor=#FFFFFF;" parent="qdYtrNAOrZ_5D9fwXnJb-2" vertex="1">
          <mxGeometry x="70" y="93" width="58" height="54" as="geometry" />
        </mxCell>
        <mxCell id="70666756c84bb93c-8" value="Central&lt;div&gt;Management&lt;/div&gt;&lt;div&gt;Service&lt;/div&gt;" style="shadow=0;dashed=0;html=1;strokeColor=none;fillColor=#ffffff;labelPosition=center;verticalLabelPosition=bottom;verticalAlign=top;shape=mxgraph.office.services.central_management_service;rounded=0;comic=0;fontFamily=Verdana;fontSize=14;fontColor=#FFFFFF;" parent="qdYtrNAOrZ_5D9fwXnJb-2" vertex="1">
          <mxGeometry x="37" y="203" width="51" height="54" as="geometry" />
        </mxCell>
        <mxCell id="70666756c84bb93c-9" value="Digital&lt;div&gt;Development&lt;/div&gt;" style="shadow=0;dashed=0;html=1;strokeColor=none;fillColor=#ffffff;labelPosition=center;verticalLabelPosition=bottom;verticalAlign=top;shape=mxgraph.office.servers.on_premises_server;rounded=0;comic=0;fontFamily=Verdana;fontSize=14;fontColor=#FFFFFF;" parent="qdYtrNAOrZ_5D9fwXnJb-2" vertex="1">
          <mxGeometry x="420" y="172" width="44" height="58" as="geometry" />
        </mxCell>
        <mxCell id="70666756c84bb93c-10" value="Technology&lt;div&gt;Certificates&lt;/div&gt;" style="shadow=0;dashed=0;html=1;strokeColor=none;fillColor=#ffffff;labelPosition=center;verticalLabelPosition=bottom;verticalAlign=top;shape=mxgraph.office.security.token_service;rounded=0;comic=0;fontFamily=Verdana;fontSize=14;fontColor=#FFFFFF;" parent="qdYtrNAOrZ_5D9fwXnJb-2" vertex="1">
          <mxGeometry x="170" y="382" width="60" height="56" as="geometry" />
        </mxCell>
        <mxCell id="70666756c84bb93c-11" value="Infrastructure" style="shadow=0;dashed=0;html=1;strokeColor=none;fillColor=#ffffff;labelPosition=center;verticalLabelPosition=bottom;verticalAlign=top;shape=mxgraph.office.concepts.on_premises;rounded=0;comic=0;fontFamily=Verdana;fontSize=14;fontColor=#FFFFFF;" parent="qdYtrNAOrZ_5D9fwXnJb-2" vertex="1">
          <mxGeometry x="313" y="380" width="34" height="55" as="geometry" />
        </mxCell>
        <mxCell id="70666756c84bb93c-12" value="Global&lt;div&gt;Partnerships&lt;/div&gt;" style="shadow=0;dashed=0;html=1;strokeColor=none;fillColor=#ffffff;labelPosition=center;verticalLabelPosition=bottom;verticalAlign=top;shape=mxgraph.office.concepts.globe_internet;rounded=0;comic=0;fontFamily=Verdana;fontSize=14;fontColor=#FFFFFF;" parent="qdYtrNAOrZ_5D9fwXnJb-2" vertex="1">
          <mxGeometry x="161" y="30" width="49" height="49" as="geometry" />
        </mxCell>
        <mxCell id="70666756c84bb93c-13" value="Environmental&lt;div&gt;Awareness&lt;/div&gt;" style="shadow=0;dashed=0;html=1;strokeColor=none;shape=mxgraph.mscae.general.continuous_cycle;fillColor=#ffffff;rounded=0;comic=0;fontFamily=Verdana;fontSize=14;fontColor=#FFFFFF;verticalAlign=top;labelPosition=center;verticalLabelPosition=bottom;align=center;" parent="qdYtrNAOrZ_5D9fwXnJb-2" vertex="1">
          <mxGeometry x="270" y="25" width="48" height="50" as="geometry" />
        </mxCell>
        <mxCell id="qdYtrNAOrZ_5D9fwXnJb-1" style="edgeStyle=orthogonalEdgeStyle;rounded=0;orthogonalLoop=1;jettySize=auto;html=1;exitX=0.6;exitY=1;exitDx=0;exitDy=0;exitPerimeter=0;" edge="1" parent="qdYtrNAOrZ_5D9fwXnJb-2" source="70666756c84bb93c-15" target="70666756c84bb93c-1">
          <mxGeometry relative="1" as="geometry" />
        </mxCell>
        <mxCell id="70666756c84bb93c-15" value="Finance" style="shape=mxgraph.signs.travel.euro;html=1;fillColor=#ffffff;strokeColor=none;verticalLabelPosition=bottom;verticalAlign=top;align=center;rounded=0;shadow=0;dashed=0;comic=0;fontFamily=Verdana;fontSize=14;fontColor=#FFFFFF;" parent="qdYtrNAOrZ_5D9fwXnJb-2" vertex="1">
          <mxGeometry x="357" y="79" width="45" height="51" as="geometry" />
        </mxCell>
      </root>
    </mxGraphModel>
  </diagram>
</mxfile>
